<svg width="203" height="203" viewBox="0 0 203 203" fill="none" xmlns="http://www.w3.org/2000/svg">
<path d="M5.1088 19.7318C5.20324 16.7703 5.21093 13.5898 6.56059 10.8882C8.4166 9.03064 12.0708 6.32996 14.4453 6.20632C18.4028 6.00027 22.2313 10.2377 26.1866 10.4039C33.2929 10.7024 40.239 9.82358 47.3181 9.39933C55.2729 8.9226 62.9152 7.23573 70.7796 6.11663C82.2024 4.49119 93.2916 5.04631 104.726 6.20632C112.84 7.02945 120.839 6.7012 128.887 5.45292C139.529 3.80223 150.682 2.19792 161.471 3.44383C168.877 4.299 176.068 6.4075 181.743 11.4264C184.317 13.7034 187.047 16.3077 188.894 19.2295C191.199 22.8761 190.973 27.2236 190.901 31.3737C190.832 35.3715 190.533 39.5441 192.093 43.3295C192.945 45.3956 194.402 47.1703 195.615 49.0249C201.172 57.5213 200.076 67.8906 199.54 77.5468C198.86 89.8228 199.048 102.098 198.304 114.374C197.629 125.493 198.568 136.154 199.63 147.201C200.156 152.674 199.951 158.257 198.286 163.534C204.691 207.743 161.592 189.575 150.436 198.217C130.256 202.973 106.204 196.789 101.464 196.074C95.7727 195.215 90.0661 194.857 84.3117 194.881C72.9631 194.927 61.6503 193.397 50.7414 197.123C46.3904 198.609 42.3227 199.428 37.7112 199.428C34.7142 199.428 31.4756 199.628 28.7317 198.217C25.6869 196.652 22.8058 194.732 19.77 193.132C16.983 191.663 13.6713 190.489 11.1848 188.513C7.56117 185.633 7.69079 180.049 7.29544 175.875C6.99217 172.674 6.46776 169.645 5.59273 166.556C3.59282 159.497 6.01352 153.42 6.56059 146.358C6.90302 141.938 5.46762 138.481 4.12302 134.393C2.89797 130.668 2.66316 127.275 3.47779 123.433C5.23163 115.16 7.22723 107.211 7.7256 98.7318C7.95496 94.8295 8.22446 90.9286 8.58592 87.0361C8.95258 83.0875 9.27479 79.3471 8.03029 75.5018C7.08713 72.5876 5.40754 70.0192 4.68761 67.017C3.99373 64.1234 3.94884 61.1331 4.01548 58.1734C4.09143 54.8005 4.2905 51.4288 4.92957 48.1101C5.73856 43.909 7.22249 39.8698 7.99445 35.6609C8.62284 32.2348 8.58531 29.4563 6.81151 26.4317C5.47379 24.1507 5.02371 22.4002 5.1088 19.7318Z" stroke="#6D6556" stroke-width="5" stroke-linecap="round"/>
</svg>
