<svg width="284" height="266" viewBox="0 0 284 266" fill="none" xmlns="http://www.w3.org/2000/svg">
<g filter="url(#filter0_ddf_3_285)">
<rect x="9.06342" y="6.45293" width="262" height="243" fill="#F7DADA"/>
<path d="M8.92139 28.4428H271.921M8.92139 58.4428H271.921M8.92139 87.4428H271.921M8.92139 117.443H271.921M8.92139 148.443H271.921M8.92139 178.443H271.921M8.92139 207.443H271.921M8.92139 237.443H271.921" stroke="#DA8181" stroke-opacity="0.8"/>
<path d="M244.886 7.69691L244.955 251.278M214.886 7.70538L214.955 251.286M185.886 7.71356L185.955 251.294M155.886 7.72203L155.955 251.303M124.886 7.73077L124.955 251.311M94.8861 7.73924L94.9548 251.32M65.8861 7.74742L65.9548 251.328M35.8861 7.75589L35.9548 251.337" stroke="#DA8181" stroke-opacity="0.8"/>
</g>
<defs>
<filter id="filter0_ddf_3_285" x="0.921387" y="0.45293" width="283" height="264.884" filterUnits="userSpaceOnUse" color-interpolation-filters="sRGB">
<feFlood flood-opacity="0" result="BackgroundImageFix"/>
<feColorMatrix in="SourceAlpha" type="matrix" values="0 0 0 0 0 0 0 0 0 0 0 0 0 0 0 0 0 0 127 0" result="hardAlpha"/>
<feOffset dx="2" dy="4"/>
<feGaussianBlur stdDeviation="5"/>
<feComposite in2="hardAlpha" operator="out"/>
<feColorMatrix type="matrix" values="0 0 0 0 0.233333 0 0 0 0 0.192364 0 0 0 0 0.0870139 0 0 0 0.1 0"/>
<feBlend mode="normal" in2="BackgroundImageFix" result="effect1_dropShadow_3_285"/>
<feColorMatrix in="SourceAlpha" type="matrix" values="0 0 0 0 0 0 0 0 0 0 0 0 0 0 0 0 0 0 127 0" result="hardAlpha"/>
<feOffset dx="-2" dy="-1"/>
<feGaussianBlur stdDeviation="2"/>
<feComposite in2="hardAlpha" operator="out"/>
<feColorMatrix type="matrix" values="0 0 0 0 0.235294 0 0 0 0 0.192157 0 0 0 0 0.0862745 0 0 0 0.1 0"/>
<feBlend mode="normal" in2="effect1_dropShadow_3_285" result="effect2_dropShadow_3_285"/>
<feBlend mode="normal" in="SourceGraphic" in2="effect2_dropShadow_3_285" result="shape"/>
<feGaussianBlur stdDeviation="1" result="effect3_foregroundBlur_3_285"/>
</filter>
</defs>
</svg>
