<svg width="585" height="384" viewBox="0 0 585 384" fill="none" xmlns="http://www.w3.org/2000/svg">
<g filter="url(#filter0_d_355_58)">
<path d="M24.9682 6.2002C13.3102 17.7971 9.88798 29.3307 10.0028 42.1381C10.1469 58.2187 11.4681 73.0095 23.8863 88.1161C51.4457 121.641 -6.59589 158.027 24.9682 190.557C44.3653 210.548 57.4157 232.141 55.476 254.64C53.7662 274.472 54.624 308.471 94 334.142C115.477 348.144 159.949 362.872 188.939 367.863C238.203 376.344 272.05 356.841 323.661 356.944C385.088 357.066 439.706 352.89 487.696 334.142C527.257 318.686 531.322 302.789 574.948 291.388" stroke="#FC817E" stroke-width="5" stroke-linecap="round"/>
</g>
<defs>
<filter id="filter0_d_355_58" x="0.5" y="0.700195" width="583.949" height="382.8" filterUnits="userSpaceOnUse" color-interpolation-filters="sRGB">
<feFlood flood-opacity="0" result="BackgroundImageFix"/>
<feColorMatrix in="SourceAlpha" type="matrix" values="0 0 0 0 0 0 0 0 0 0 0 0 0 0 0 0 0 0 127 0" result="hardAlpha"/>
<feOffset dy="4"/>
<feGaussianBlur stdDeviation="3.5"/>
<feComposite in2="hardAlpha" operator="out"/>
<feColorMatrix type="matrix" values="0 0 0 0 0 0 0 0 0 0 0 0 0 0 0 0 0 0 0.25 0"/>
<feBlend mode="normal" in2="BackgroundImageFix" result="effect1_dropShadow_355_58"/>
<feBlend mode="normal" in="SourceGraphic" in2="effect1_dropShadow_355_58" result="shape"/>
</filter>
</defs>
</svg>
