<svg width="1028" height="565" viewBox="0 0 1028 565" fill="none" xmlns="http://www.w3.org/2000/svg">
<g filter="url(#filter0_d_353_54)">
<path d="M69.612 159.508C63.9898 173.137 36.0672 176.159 24.9682 187.2C13.3102 198.797 9.88798 210.331 10.0028 223.138C10.1469 239.219 11.4681 254.01 23.8863 269.116C51.4457 302.641 -6.59589 339.027 24.9682 371.558C44.3653 391.548 57.4157 413.141 55.476 435.64C53.7662 455.472 54.624 489.471 94 515.142C115.477 529.144 159.949 543.872 188.939 548.862C238.203 557.344 272.05 537.841 323.661 537.944C385.088 538.066 439.706 533.89 487.696 515.142C527.257 499.686 531.322 483.789 574.948 472.388M878.475 411.294C936.847 411.294 949.229 350.672 947.703 326.747C946.982 315.447 948.017 304.203 953.184 293.165C957.937 283.015 965.628 273.245 972.297 263.389C997.327 226.398 1028.47 189.786 1014.56 149.776C1009.5 135.228 997.141 123.334 976.408 112.914C955.919 102.617 927.949 99.2019 900.319 96.694C815.943 89.0358 731.74 80.0565 650.486 66.1749C610.183 59.2895 570.575 52.516 527.662 51.2053C492.891 50.1434 457.083 53.3109 423.733 58.1646C400.466 61.5508 380.617 67.5345 362.862 75.7438C347.798 82.7088 332.622 89.867 315.261 95.3892C294.009 102.149 267.819 89.3606 237.717 89.3606C213.715 89.3606 184.929 98.7883 176.64 109.97" stroke="#FC817E" stroke-width="5" stroke-linecap="round"/>
</g>
<path d="M165.744 80.8953C165.744 80.494 169.227 92.224 169.227 92.224C169.227 92.224 170.063 95.6818 170.272 97.0792C170.776 100.461 172.627 110.95 172.627 110.95C172.627 110.95 163.188 109.01 161.564 108.408C157.217 106.797 147.284 101.934 147.284 101.934" stroke="#FC817E" stroke-width="3" stroke-linecap="round"/>
<path d="M145.891 100.317C145.891 100.317 141.114 94.6286 136.405 88.6677C120.421 68.4359 103.468 49.4303 86.4754 30.3716" stroke="#FC817E" stroke-width="3" stroke-linecap="round"/>
<path d="M162.373 78.7914C158.822 73.6356 153.935 68.7762 150.004 64.3612C135.024 47.5356 119.673 31.2895 104.305 14.9751" stroke="#FC817E" stroke-width="3" stroke-linecap="round"/>
<path d="M101.414 10.2202C101.928 10.1538 101.753 9.75856 101.36 10.3446C98.4648 14.6695 95.26 18.533 92.0171 22.5356" stroke="#FC817E" stroke-width="3" stroke-linecap="round"/>
<path d="M97.7996 8.53966C98.2732 8.47089 97.4137 6.91912 97.2642 6.64259C96.4707 5.17459 93.9329 4.13485 92.7665 3.53263C88.8539 1.5126 85.8479 1.07114 82.7539 4.80771C80.4617 7.57581 75.1817 13.4553 74.8829 17.6518C74.6301 21.2033 79.5946 24.9688 81.1743 27.8525" stroke="#FC817E" stroke-width="3" stroke-linecap="round"/>
<path d="M165.198 80.0059C158.5 85.3547 152.548 92.7561 146.471 98.9455" stroke="#FC817E" stroke-width="3" stroke-linecap="round"/>
<path d="M170.62 104.363L165.744 109.623" stroke="#FC817E" stroke-width="3" stroke-linecap="round"/>
<defs>
<filter id="filter0_d_353_54" x="0.5" y="45.5" width="1027" height="519" filterUnits="userSpaceOnUse" color-interpolation-filters="sRGB">
<feFlood flood-opacity="0" result="BackgroundImageFix"/>
<feColorMatrix in="SourceAlpha" type="matrix" values="0 0 0 0 0 0 0 0 0 0 0 0 0 0 0 0 0 0 127 0" result="hardAlpha"/>
<feOffset dy="4"/>
<feGaussianBlur stdDeviation="3.5"/>
<feComposite in2="hardAlpha" operator="out"/>
<feColorMatrix type="matrix" values="0 0 0 0 0 0 0 0 0 0 0 0 0 0 0 0 0 0 0.25 0"/>
<feBlend mode="normal" in2="BackgroundImageFix" result="effect1_dropShadow_353_54"/>
<feBlend mode="normal" in="SourceGraphic" in2="effect1_dropShadow_353_54" result="shape"/>
</filter>
</defs>
</svg>
